HIERARCHY
ROOT hip
{
  OFFSET 0 90.174 2.4664
  CHANNELS 6 Xposition Yposition Zposition Zrotation Xrotation Yrotation
  JOINT abdomen
  {
    OFFSET 0 -1.186 -1.5018
    CHANNELS 6 Xposition Yposition Zposition Zrotation Xrotation Yrotation
    JOINT abdomen2
    {
      OFFSET 0 9.964 0.2134
      CHANNELS 6 Xposition Yposition Zposition Zrotation Xrotation Yrotation
      JOINT chest
      {
        OFFSET 0 13.134 -3.2573
        CHANNELS 6 Xposition Yposition Zposition Zrotation Xrotation Yrotation
        JOINT neck
        {
          OFFSET 0 20.686 -1.6905
          CHANNELS 6 Xposition Yposition Zposition Zrotation Xrotation Yrotation
          JOINT head
          {
            OFFSET 0 7.238 -0.1237
            CHANNELS 6 Xposition Yposition Zposition Zrotation Xrotation Yrotation
            End Site
            {
              OFFSET 0 0 0
            }
          }
        }
        JOINT lCollar
        {
          OFFSET 1.7069 20.075 5.0056
          CHANNELS 6 Xposition Yposition Zposition Zrotation Xrotation Yrotation
          JOINT lShldr
          {
            OFFSET 13.6458 -0.047 -4.849
            CHANNELS 6 Xposition Yposition Zposition Zrotation Xrotation Yrotation
            JOINT lForeArm
            {
              OFFSET 28.3255 -0.9759 2.2888
              CHANNELS 6 Xposition Yposition Zposition Zrotation Xrotation Yrotation
              JOINT lHand
              {
                OFFSET 22.1583 -0.53 10.8316
                CHANNELS 6 Xposition Yposition Zposition Zrotation Xrotation Yrotation
                JOINT lThumb1
                {
                  OFFSET 0.786 0.112 2.5817
                  CHANNELS 6 Xposition Yposition Zposition Zrotation Xrotation Yrotation
                  JOINT lThumb2
                  {
                    OFFSET 0.3601 -0.878 4.2331
                    CHANNELS 6 Xposition Yposition Zposition Zrotation Xrotation Yrotation
                    JOINT lThumb2_End
                    {
                      OFFSET 1.8127 -1.216 2.2227
                      CHANNELS 6 Xposition Yposition Zposition Zrotation Xrotation Yrotation
                      End Site
                      {
                        OFFSET 0.0181 -0.0122 0.0222
                      }
                    }
                  }
                }
                JOINT lCarpal1
                {
                  OFFSET 0.9571 1.114 1.7695
                  CHANNELS 6 Xposition Yposition Zposition Zrotation Xrotation Yrotation
                  JOINT lIndex1
                  {
                    OFFSET 4.1246 0.487 4.1451
                    CHANNELS 6 Xposition Yposition Zposition Zrotation Xrotation Yrotation
                    JOINT lIndex2
                    {
                      OFFSET 3.4052 -1.454 2.7682
                      CHANNELS 6 Xposition Yposition Zposition Zrotation Xrotation Yrotation
                      JOINT lIndex2_End
                      {
                        OFFSET 1.4531 -1.795 1.2713
                        CHANNELS 6 Xposition Yposition Zposition Zrotation Xrotation Yrotation
                        End Site
                        {
                          OFFSET 0.0145 -0.0179 0.0127
                        }
                      }
                    }
                  }
                  JOINT lMid1
                  {
                    OFFSET 5.6954 0.21 2.1184
                    CHANNELS 6 Xposition Yposition Zposition Zrotation Xrotation Yrotation
                    JOINT lMid2
                    {
                      OFFSET 3.9766 -1.54 2.3863
                      CHANNELS 6 Xposition Yposition Zposition Zrotation Xrotation Yrotation
                      JOINT lMid2_End
                      {
                        OFFSET 1.4042 -1.926 1.125
                        CHANNELS 6 Xposition Yposition Zposition Zrotation Xrotation Yrotation
                        End Site
                        {
                          OFFSET 0.014 -0.0193 0.0113
                        }
                      }
                    }
                  }
                }
                JOINT lCarpal2
                {
                  OFFSET 2.0956 0.66 -0.3894
                  CHANNELS 6 Xposition Yposition Zposition Zrotation Xrotation Yrotation
                  JOINT lRing1
                  {
                    OFFSET 5.0395 -0.09 2.4971
                    CHANNELS 6 Xposition Yposition Zposition Zrotation Xrotation Yrotation
                    JOINT lRing2
                    {
                      OFFSET 3.7921 -1.552 1.4806
                      CHANNELS 6 Xposition Yposition Zposition Zrotation Xrotation Yrotation
                      JOINT lRing2_End
                      {
                        OFFSET 1.4655 -1.808 0.9609
                        CHANNELS 6 Xposition Yposition Zposition Zrotation Xrotation Yrotation
                        End Site
                        {
                          OFFSET 0.0147 -0.0181 0.0096
                        }
                      }
                    }
                  }
                  JOINT lPinky1
                  {
                    OFFSET 4.9141 -1.269 0.3591
                    CHANNELS 6 Xposition Yposition Zposition Zrotation Xrotation Yrotation
                    JOINT lPinky2
                    {
                      OFFSET 3.1477 -1.685 0.8462
                      CHANNELS 6 Xposition Yposition Zposition Zrotation Xrotation Yrotation
                      JOINT lPinky2_End
                      {
                        OFFSET 0.8055 -1.585 0.7955
                        CHANNELS 6 Xposition Yposition Zposition Zrotation Xrotation Yrotation
                        End Site
                        {
                          OFFSET 0.0081 -0.0158 0.008
                        }
                      }
                    }
                  }
                }
              }
            }
          }
        }
        JOINT rCollar
        {
          OFFSET -1.7069 20.075 5.0056
          CHANNELS 6 Xposition Yposition Zposition Zrotation Xrotation Yrotation
          JOINT rShldr
          {
            OFFSET -13.6458 -0.047 -4.849
            CHANNELS 6 Xposition Yposition Zposition Zrotation Xrotation Yrotation
            JOINT rForeArm
            {
              OFFSET -28.3255 -0.9759 2.2888
              CHANNELS 6 Xposition Yposition Zposition Zrotation Xrotation Yrotation
              JOINT rHand
              {
                OFFSET -22.1583 -0.53 10.8316
                CHANNELS 6 Xposition Yposition Zposition Zrotation Xrotation Yrotation
                JOINT rThumb1
                {
                  OFFSET -0.786 0.112 2.5817
                  CHANNELS 6 Xposition Yposition Zposition Zrotation Xrotation Yrotation
                  JOINT rThumb2
                  {
                    OFFSET -0.3601 -0.878 4.2331
                    CHANNELS 6 Xposition Yposition Zposition Zrotation Xrotation Yrotation
                    JOINT rThumb2_End
                    {
                      OFFSET -1.8127 -1.216 2.2227
                      CHANNELS 6 Xposition Yposition Zposition Zrotation Xrotation Yrotation
                      End Site
                      {
                        OFFSET -0.0181 -0.0122 0.0222
                      }
                    }
                  }
                }
                JOINT rCarpal1
                {
                  OFFSET -0.9571 1.114 1.7695
                  CHANNELS 6 Xposition Yposition Zposition Zrotation Xrotation Yrotation
                  JOINT rIndex1
                  {
                    OFFSET -4.1246 0.487 4.1451
                    CHANNELS 6 Xposition Yposition Zposition Zrotation Xrotation Yrotation
                    JOINT rIndex2
                    {
                      OFFSET -3.4052 -1.454 2.7682
                      CHANNELS 6 Xposition Yposition Zposition Zrotation Xrotation Yrotation
                      JOINT rIndex2_End
                      {
                        OFFSET -1.4531 -1.795 1.2713
                        CHANNELS 6 Xposition Yposition Zposition Zrotation Xrotation Yrotation
                        End Site
                        {
                          OFFSET -0.0145 -0.018 0.0127
                        }
                      }
                    }
                  }
                  JOINT rMid1
                  {
                    OFFSET -5.6954 0.21 2.1184
                    CHANNELS 6 Xposition Yposition Zposition Zrotation Xrotation Yrotation
                    JOINT rMid2
                    {
                      OFFSET -3.9766 -1.54 2.3863
                      CHANNELS 6 Xposition Yposition Zposition Zrotation Xrotation Yrotation
                      JOINT rMid2_End
                      {
                        OFFSET -1.4042 -1.926 1.125
                        CHANNELS 6 Xposition Yposition Zposition Zrotation Xrotation Yrotation
                        End Site
                        {
                          OFFSET -0.014 -0.0193 0.0113
                        }
                      }
                    }
                  }
                }
                JOINT rCarpal2
                {
                  OFFSET -2.0956 0.66 -0.3894
                  CHANNELS 6 Xposition Yposition Zposition Zrotation Xrotation Yrotation
                  JOINT rRing1
                  {
                    OFFSET -5.0395 -0.09 2.4971
                    CHANNELS 6 Xposition Yposition Zposition Zrotation Xrotation Yrotation
                    JOINT rRing2
                    {
                      OFFSET -3.7921 -1.552 1.4806
                      CHANNELS 6 Xposition Yposition Zposition Zrotation Xrotation Yrotation
                      JOINT rRing2_End
                      {
                        OFFSET -1.4655 -1.808 0.9609
                        CHANNELS 6 Xposition Yposition Zposition Zrotation Xrotation Yrotation
                        End Site
                        {
                          OFFSET -0.0147 -0.0181 0.0096
                        }
                      }
                    }
                  }
                  JOINT rPinky1
                  {
                    OFFSET -4.9141 -1.269 0.3592
                    CHANNELS 6 Xposition Yposition Zposition Zrotation Xrotation Yrotation
                    JOINT rPinky2
                    {
                      OFFSET -3.1477 -1.685 0.8462
                      CHANNELS 6 Xposition Yposition Zposition Zrotation Xrotation Yrotation
                      JOINT rPinky2_End
                      {
                        OFFSET -0.8055 -1.585 0.7955
                        CHANNELS 6 Xposition Yposition Zposition Zrotation Xrotation Yrotation
                        End Site
                        {
                          OFFSET -0.0081 -0.0158 0.008
                        }
                      }
                    }
                  }
                }
              }
            }
          }
        }
      }
    }
  }
  JOINT lThigh
  {
    OFFSET 8.367 -8.2066 0.5982
    CHANNELS 6 Xposition Yposition Zposition Zrotation Xrotation Yrotation
    JOINT lShin
    {
      OFFSET 2.1923 -43.463 -0.4932
      CHANNELS 6 Xposition Yposition Zposition Zrotation Xrotation Yrotation
      JOINT lFoot
      {
        OFFSET 0.7333 -45.8593 -2.6451
        CHANNELS 6 Xposition Yposition Zposition Zrotation Xrotation Yrotation
        End Site
        {
          OFFSET 2.6618 -4.2699 12.3931
        }
      }
    }
  }
  JOINT rThigh
  {
    OFFSET -8.367 -8.2066 0.5982
    CHANNELS 6 Xposition Yposition Zposition Zrotation Xrotation Yrotation
    JOINT rShin
    {
      OFFSET -2.1923 -43.463 -0.4931
      CHANNELS 6 Xposition Yposition Zposition Zrotation Xrotation Yrotation
      JOINT rFoot
      {
        OFFSET -0.7333 -45.8593 -2.6451
        CHANNELS 6 Xposition Yposition Zposition Zrotation Xrotation Yrotation
        End Site
        {
          OFFSET -2.6618 -4.2699 12.3931
        }
      }
    }
  }
}
MOTION
Frames:	4
Frame Time:	0.0333333
-2.7988 46.7719 -27.405 -0 -9.00558 -0 0 -1.186 -1.5018 0.0576274 15.1854 -0.170052 0 9.964 0.2134 0.173717 30.3706 -0.377767 -4.44089e-016 13.134 -3.2573 0.173717 30.3706 -0.377766 0 20.686 -1.6905 0.510607 29.0001 -0.249447 4.44089e-016 7.238 -0.1237 4.62495 -11.6062 0.921699 1.7069 20.075 5.0056 19.4238 -3.97559 -30.8988 13.6458 -0.047 -4.849 -41.2175 -50.4832 -11.0409 28.3255 -0.9759 2.2888 33.2318 -31.4838 -96.7506 22.1583 -0.53 10.8316 -19.5329 -32.8108 -15.2441 0.786 0.112 2.5817 1.41849e-006 -7.49925e-007 -4.96799e-007 0.3601 -0.878 4.2331 1.27222e-014 -2.06736e-014 -1.27222e-014 1.8127 -1.216 2.2227 2.83698e-006 -1.49985e-006 -9.93598e-007 0.9571 1.114 1.7695 8.82781e-032 1.59028e-015 -3.18055e-015 4.1246 0.487 4.1451 1.41849e-006 -7.49925e-007 -4.96799e-007 3.4052 -1.454 2.7682 9.54166e-015 -1.59028e-014 -1.59028e-014 1.4531 -1.795 1.2713 2.83698e-006 -1.49985e-006 -9.93598e-007 5.6954 0.21 2.1184 1.41849e-006 -7.49925e-007 -4.96799e-007 3.9766 -1.54 2.3863 9.54166e-015 -1.59028e-014 -1.59028e-014 1.4042 -1.926 1.125 2.83698e-006 -1.49985e-006 -9.93598e-007 2.0956 0.66 -0.3894 8.82781e-032 1.59028e-015 -3.18055e-015 5.0395 -0.09 2.4971 1.41849e-006 -7.49925e-007 -4.96799e-007 3.7921 -1.552 1.4806 9.54166e-015 -1.59028e-014 -1.59028e-014 1.4655 -1.808 0.9609 2.83698e-006 -1.49985e-006 -9.93598e-007 4.9141 -1.269 0.3591 1.41849e-006 -7.49925e-007 -4.96799e-007 3.1477 -1.685 0.8462 9.54166e-015 -1.59028e-014 -1.59028e-014 0.8055 -1.585 0.7955 2.83698e-006 -1.49985e-006 -9.93598e-007 -1.7069 20.075 5.0056 -7.91872 4.78256 5.60314 -13.6458 -0.047 -4.849 86.9654 -27.7961 42.019 -28.3255 -0.9759 2.2888 34.6973 61.3983 43.5403 -22.1583 -0.53 10.8316 0.637252 -6.76555 -45.2966 -0.786 0.112 2.5817 3.32925e-006 -9.0373e-007 2.64287e-006 -0.3601 -0.878 4.2331 -4.85984e-006 -2.01601e-006 6.48211e-006 -1.8127 -1.216 2.2227 -2.60082e-006 -2.22926e-006 2.57145e-006 -0.9571 1.114 1.7695 3.18055e-015 3.18055e-015 -0 -4.1246 0.487 4.1451 3.32925e-006 -9.0373e-007 2.64287e-006 -3.4052 -1.454 2.7682 -4.85984e-006 -2.01601e-006 6.48211e-006 -1.4531 -1.795 1.2713 -2.60082e-006 -2.22926e-006 2.57145e-006 -5.6954 0.21 2.1184 3.32925e-006 -9.0373e-007 2.64287e-006 -3.9766 -1.54 2.3863 -4.85984e-006 -2.01601e-006 6.48211e-006 -1.4042 -1.926 1.125 -2.60082e-006 -2.22926e-006 2.57145e-006 -2.0956 0.66 -0.3894 3.18055e-015 3.18055e-015 -0 -5.0395 -0.09 2.4971 3.32925e-006 -9.0373e-007 2.64287e-006 -3.7921 -1.552 1.4806 -4.85984e-006 -2.01601e-006 6.48211e-006 -1.4655 -1.808 0.9609 -2.60082e-006 -2.22926e-006 2.57145e-006 -4.9141 -1.269 0.3592 3.32925e-006 -9.0373e-007 2.64287e-006 -3.1477 -1.685 0.8462 -4.85984e-006 -2.01601e-006 6.48211e-006 -0.8055 -1.585 0.7955 -2.60082e-006 -2.22926e-006 2.57145e-006 8.367 -8.2066 0.5982 10.1386 -7.47382 12.4495 2.1923 -43.463 -0.4932 146.197 79.2973 -147.961 0.7333 -45.8593 -2.6451 23.6303 62.3747 -1.46626 -8.367 -8.2066 0.5982 -11.3543 -8.18467 -12.5679 -2.1923 -43.463 -0.4931 -146.038 79.0174 147.887 -0.7333 -45.8593 -2.6451 -25.1878 62.1148 3.39066 
-2.79882 46.8984 -27.2221 -0 -9.00558 -0 0 -1.186 -1.5018 0.0575504 15.1258 -0.169625 0 9.964 0.2134 0.173104 30.2513 -0.376571 0 13.134 -3.2573 0.173104 30.2513 -0.376571 4.44089e-016 20.686 -1.6905 0.510613 28.9999 -0.249449 0 7.238 -0.1237 4.6208 -11.3582 0.901288 1.7069 20.075 5.0056 19.0414 -3.27925 -31.305 13.6458 -0.047 -4.849 -41.2175 -50.4832 -11.0409 28.3255 -0.9759 2.2888 33.2318 -31.4838 -96.7505 22.1583 -0.53 10.8316 -19.3877 -32.3375 -15.5167 0.786 0.112 2.5817 -0 0 3.18055e-015 0.3601 -0.878 4.2331 6.3029e-007 1.9701e-006 9.63698e-008 1.8127 -1.216 2.2227 -6.3029e-007 -1.9701e-006 -9.63698e-008 0.9571 1.114 1.7695 -0 0 6.36111e-015 4.1246 0.487 4.1451 3.18055e-015 -6.36111e-015 9.54166e-015 3.4052 -1.454 2.7682 6.3029e-007 1.9701e-006 9.63698e-008 1.4531 -1.795 1.2713 -6.3029e-007 -1.9701e-006 -9.63698e-008 5.6954 0.21 2.1184 3.18055e-015 -6.36111e-015 9.54166e-015 3.9766 -1.54 2.3863 6.3029e-007 1.9701e-006 9.63698e-008 1.4042 -1.926 1.125 -6.3029e-007 -1.9701e-006 -9.63698e-008 2.0956 0.66 -0.3894 -0 0 6.36111e-015 5.0395 -0.09 2.4971 3.18055e-015 -6.36111e-015 9.54166e-015 3.7921 -1.552 1.4806 6.3029e-007 1.9701e-006 9.63698e-008 1.4655 -1.808 0.9609 -6.3029e-007 -1.9701e-006 -9.63698e-008 4.9141 -1.269 0.3591 3.18055e-015 -6.36111e-015 9.54166e-015 3.1477 -1.685 0.8462 6.3029e-007 1.9701e-006 9.63698e-008 0.8055 -1.585 0.7955 -6.3029e-007 -1.9701e-006 -9.63698e-008 -1.7069 20.075 5.0056 -7.56684 5.2501 6.23914 -13.6458 -0.047 -4.849 86.8732 -28.0477 42.2696 -28.3255 -0.9759 2.2888 33.921 60.5968 43.3276 -22.1583 -0.53 10.8316 1.56262 -6.5867 -44.1075 -0.786 0.112 2.5817 -3.18055e-015 -9.54166e-015 -0 -0.3601 -0.878 4.2331 -4.57496e-007 -1.65286e-006 2.64668e-006 -1.8127 -1.216 2.2227 -4.57496e-007 -1.65286e-006 2.64668e-006 -0.9571 1.114 1.7695 -3.18055e-015 -3.18055e-015 -0 -4.1246 0.487 4.1451 -6.36111e-015 -6.36111e-015 6.36111e-015 -3.4052 -1.454 2.7682 -4.57496e-007 -1.65286e-006 2.64668e-006 -1.4531 -1.795 1.2713 -4.57496e-007 -1.65286e-006 2.64668e-006 -5.6954 0.21 2.1184 -6.36111e-015 -6.36111e-015 6.36111e-015 -3.9766 -1.54 2.3863 -4.57496e-007 -1.65286e-006 2.64668e-006 -1.4042 -1.926 1.125 -4.57496e-007 -1.65286e-006 2.64668e-006 -2.0956 0.66 -0.3894 -3.18055e-015 -3.18055e-015 -0 -5.0395 -0.09 2.4971 -6.36111e-015 -6.36111e-015 6.36111e-015 -3.7921 -1.552 1.4806 -4.57496e-007 -1.65286e-006 2.64668e-006 -1.4655 -1.808 0.9609 -4.57496e-007 -1.65286e-006 2.64668e-006 -4.9141 -1.269 0.3592 -6.36111e-015 -6.36111e-015 6.36111e-015 -3.1477 -1.685 0.8462 -4.57496e-007 -1.65286e-006 2.64668e-006 -0.8055 -1.585 0.7955 -4.57496e-007 -1.65286e-006 2.64668e-006 8.367 -8.2066 0.5982 10.1226 -7.16059 12.4033 2.1923 -43.463 -0.4932 145.236 79.6209 -147.038 0.7333 -45.8593 -2.6451 23.6431 62.3486 -1.483 -8.367 -8.2066 0.5982 -11.3386 -7.87081 -12.5213 -2.1923 -43.463 -0.4931 -145.097 79.34 146.986 -0.7333 -45.8593 -2.6451 -25.1995 62.0887 3.40618 
-2.79884 47.0113 -27.0587 -0 -9.00558 -0 0 -1.186 -1.5018 0.0574824 15.0725 -0.169241 -4.44089e-016 9.964 0.2134 0.17256 30.1447 -0.375502 4.44089e-016 13.134 -3.2573 0.17256 30.1447 -0.375502 -4.44089e-016 20.686 -1.6905 0.510609 28.9999 -0.249447 0 7.238 -0.1237 4.61717 -11.1367 0.883087 1.7069 20.075 5.0056 18.7036 -2.65383 -31.6633 13.6458 -0.047 -4.849 -41.2175 -50.4832 -11.0409 28.3255 -0.9759 2.2888 33.2318 -31.4838 -96.7506 22.1583 -0.53 10.8316 -19.2566 -31.9151 -15.7603 0.786 0.112 2.5817 1.41813e-006 -7.50627e-007 -4.97362e-007 0.3601 -0.878 4.2331 1.41813e-006 -7.50627e-007 -4.97362e-007 1.8127 -1.216 2.2227 1.41813e-006 -7.50627e-007 -4.97362e-007 0.9571 1.114 1.7695 0 0 -3.18055e-015 4.1246 0.487 4.1451 1.41813e-006 -7.50627e-007 -4.97362e-007 3.4052 -1.454 2.7682 1.41813e-006 -7.50627e-007 -4.97362e-007 1.4531 -1.795 1.2713 1.41813e-006 -7.50627e-007 -4.97362e-007 5.6954 0.21 2.1184 1.41813e-006 -7.50627e-007 -4.97362e-007 3.9766 -1.54 2.3863 1.41813e-006 -7.50627e-007 -4.97362e-007 1.4042 -1.926 1.125 1.41813e-006 -7.50627e-007 -4.97362e-007 2.0956 0.66 -0.3894 0 0 -3.18055e-015 5.0395 -0.09 2.4971 1.41813e-006 -7.50627e-007 -4.97362e-007 3.7921 -1.552 1.4806 1.41813e-006 -7.50627e-007 -4.97362e-007 1.4655 -1.808 0.9609 1.41813e-006 -7.50627e-007 -4.97362e-007 4.9141 -1.269 0.3591 1.41813e-006 -7.50627e-007 -4.97362e-007 3.1477 -1.685 0.8462 1.41813e-006 -7.50627e-007 -4.97362e-007 0.8055 -1.585 0.7955 1.41813e-006 -7.50627e-007 -4.97362e-007 -1.7069 20.075 5.0056 -7.25606 5.67176 6.80549 -13.6458 -0.047 -4.849 86.7916 -28.2729 42.4934 -28.3255 -0.9759 2.2888 33.2401 59.8845 43.1163 -22.1583 -0.53 10.8316 2.38722 -6.40928 -43.0454 -0.786 0.112 2.5817 1.0673e-006 -1.48007e-006 2.43973e-006 -0.3601 -0.878 4.2331 -1.76289e-006 1.01492e-006 4.29957e-006 -1.8127 -1.216 2.2227 6.50132e-007 -1.32862e-006 -8.21162e-007 -0.9571 1.114 1.7695 6.36111e-015 -6.36111e-015 -0 -4.1246 0.487 4.1451 1.0673e-006 -1.48007e-006 2.43973e-006 -3.4052 -1.454 2.7682 -1.76289e-006 1.01492e-006 4.29957e-006 -1.4531 -1.795 1.2713 6.50132e-007 -1.32862e-006 -8.21162e-007 -5.6954 0.21 2.1184 1.0673e-006 -1.48007e-006 2.43973e-006 -3.9766 -1.54 2.3863 -1.76289e-006 1.01492e-006 4.29957e-006 -1.4042 -1.926 1.125 6.50132e-007 -1.32862e-006 -8.21162e-007 -2.0956 0.66 -0.3894 6.36111e-015 -6.36111e-015 -0 -5.0395 -0.09 2.4971 1.0673e-006 -1.48007e-006 2.43973e-006 -3.7921 -1.552 1.4806 -1.76289e-006 1.01492e-006 4.29957e-006 -1.4655 -1.808 0.9609 6.50132e-007 -1.32862e-006 -8.21162e-007 -4.9141 -1.269 0.3592 1.0673e-006 -1.48007e-006 2.43973e-006 -3.1477 -1.685 0.8462 -1.76289e-006 1.01492e-006 4.29957e-006 -0.8055 -1.585 0.7955 6.50132e-007 -1.32862e-006 -8.21162e-007 8.367 -8.2066 0.5982 10.1083 -6.88082 12.3625 2.1923 -43.463 -0.4932 144.325 79.9077 -146.161 0.7333 -45.8593 -2.6451 23.6545 62.3256 -1.49788 -8.367 -8.2066 0.5982 -11.3246 -7.59055 -12.48 -2.1923 -43.463 -0.4931 -144.209 79.6256 146.132 -0.7333 -45.8593 -2.6451 -25.2097 62.0656 3.41985 
-2.79887 47.1242 -26.8953 -0 -9.00558 -0 0 -1.186 -1.5018 0.0574151 15.0192 -0.168856 0 9.964 0.2134 0.172018 30.0381 -0.374432 4.44089e-016 13.134 -3.2573 0.172018 30.0381 -0.374433 -4.44089e-016 20.686 -1.6905 0.510624 29.0001 -0.249455 0 7.238 -0.1237 4.61362 -10.9152 0.86491 1.7069 20.075 5.0056 18.3696 -2.02579 -32.0181 13.6458 -0.047 -4.849 -41.2175 -50.4832 -11.0409 28.3255 -0.9759 2.2888 33.2318 -31.4838 -96.7506 22.1583 -0.53 10.8316 -19.1239 -31.493 -16.004 0.786 0.112 2.5817 -1.41796e-006 7.50931e-007 4.97655e-007 0.3601 -0.878 4.2331 1.41796e-006 -7.50931e-007 -4.97655e-007 1.8127 -1.216 2.2227 -1.41796e-006 7.50931e-007 4.97655e-007 0.9571 1.114 1.7695 0 0 -3.18055e-015 4.1246 0.487 4.1451 -1.41796e-006 7.50931e-007 4.97655e-007 3.4052 -1.454 2.7682 1.41796e-006 -7.50931e-007 -4.97655e-007 1.4531 -1.795 1.2713 -1.41796e-006 7.50931e-007 4.97655e-007 5.6954 0.21 2.1184 -1.41796e-006 7.50931e-007 4.97655e-007 3.9766 -1.54 2.3863 1.41796e-006 -7.50931e-007 -4.97655e-007 1.4042 -1.926 1.125 -1.41796e-006 7.50931e-007 4.97655e-007 2.0956 0.66 -0.3894 0 0 -3.18055e-015 5.0395 -0.09 2.4971 -1.41796e-006 7.50931e-007 4.97655e-007 3.7921 -1.552 1.4806 1.41796e-006 -7.50931e-007 -4.97655e-007 1.4655 -1.808 0.9609 -1.41796e-006 7.50931e-007 4.97655e-007 4.9141 -1.269 0.3591 -1.41796e-006 7.50931e-007 4.97655e-007 3.1477 -1.685 0.8462 1.41796e-006 -7.50931e-007 -4.97655e-007 0.8055 -1.585 0.7955 -1.41796e-006 7.50931e-007 4.97655e-007 -1.7069 20.075 5.0056 -6.94901 6.09681 7.37041 -13.6458 -0.047 -4.849 86.7109 -28.4985 42.7175 -28.3255 -0.9759 2.2888 32.5679 59.1732 42.8928 -22.1583 -0.53 10.8316 3.20978 -6.21629 -41.9841 -0.786 0.112 2.5817 6.36111e-015 -3.18055e-015 6.36111e-015 -0.3601 -0.878 4.2331 9.54166e-015 -6.36111e-015 3.18055e-015 -1.8127 -1.216 2.2227 3.18055e-015 -3.18055e-015 3.18055e-015 -0.9571 1.114 1.7695 3.18055e-015 -3.18055e-015 3.18055e-015 -4.1246 0.487 4.1451 9.54166e-015 -3.18055e-015 -0 -3.4052 -1.454 2.7682 3.18055e-015 -3.18055e-015 3.18055e-015 -1.4531 -1.795 1.2713 9.54166e-015 0 9.54166e-015 -5.6954 0.21 2.1184 9.54166e-015 -3.18055e-015 -0 -3.9766 -1.54 2.3863 3.18055e-015 -3.18055e-015 3.18055e-015 -1.4042 -1.926 1.125 9.54166e-015 0 9.54166e-015 -2.0956 0.66 -0.3894 3.18055e-015 -3.18055e-015 3.18055e-015 -5.0395 -0.09 2.4971 9.54166e-015 -3.18055e-015 -0 -3.7921 -1.552 1.4806 3.18055e-015 -3.18055e-015 3.18055e-015 -1.4655 -1.808 0.9609 9.54166e-015 0 9.54166e-015 -4.9141 -1.269 0.3592 9.54166e-015 -3.18055e-015 -0 -3.1477 -1.685 0.8462 3.18055e-015 -3.18055e-015 3.18055e-015 -0.8055 -1.585 0.7955 9.54166e-015 0 9.54166e-015 8.367 -8.2066 0.5982 10.0941 -6.60144 12.3219 2.1923 -43.463 -0.4932 143.364 80.1915 -145.232 0.7333 -45.8593 -2.6451 23.6656 62.3026 -1.51252 -8.367 -8.2066 0.5982 -11.3107 -7.31017 -12.439 -2.1923 -43.463 -0.4931 -143.269 79.9087 145.227 -0.7333 -45.8593 -2.6451 -25.2198 62.0425 3.43338 
